{
	"asset":{
		"generator":"Khronos glTF Blender I/O v3.5.30",
		"version":"2.0"
	},
	"scene":0,
	"scenes":[
		{
			"name":"Scene",
			"nodes":[
				0,
				1
			]
		}
	],
	"nodes":[
		{
			"mesh":0,
			"name":"Eva Milenia"
		},
		{
			"mesh":1,
			"name":"Suzanne",
			"translation":[
				0.04437127709388733,
				0.44512394070625305,
				-0.6491367220878601
			]
		}
	],
	"meshes":[
		{
			"name":"Text",
			"primitives":[
				{
					"attributes":{
						"POSITION":0,
						"TEXCOORD_0":1,
						"NORMAL":2
					},
					"indices":3
				}
			]
		},
		{
			"name":"Suzanne",
			"primitives":[
				{
					"attributes":{
						"POSITION":4,
						"TEXCOORD_0":5,
						"NORMAL":6
					},
					"indices":7
				}
			]
		}
	],
	"accessors":[
		{
			"bufferView":0,
			"componentType":5126,
			"count":1761,
			"max":[
				7.9200005531311035,
				0,
				1.0089999437332153
			],
			"min":[
				0.07500000298023224,
				0,
				-0.6820000410079956
			],
			"type":"VEC3"
		},
		{
			"bufferView":1,
			"componentType":5126,
			"count":1761,
			"type":"VEC2"
		},
		{
			"bufferView":2,
			"componentType":5126,
			"count":1761,
			"type":"VEC3"
		},
		{
			"bufferView":3,
			"componentType":5123,
			"count":5181,
			"type":"SCALAR"
		},
		{
			"bufferView":4,
			"componentType":5126,
			"count":1966,
			"max":[
				1.3671875,
				0.984375,
				0.8515625
			],
			"min":[
				-1.3671875,
				-0.984375,
				-0.8515625
			],
			"type":"VEC3"
		},
		{
			"bufferView":5,
			"componentType":5126,
			"count":1966,
			"type":"VEC2"
		},
		{
			"bufferView":6,
			"componentType":5126,
			"count":1966,
			"type":"VEC3"
		},
		{
			"bufferView":7,
			"componentType":5123,
			"count":2904,
			"type":"SCALAR"
		}
	],
	"bufferViews":[
		{
			"buffer":0,
			"byteLength":21132,
			"byteOffset":0,
			"target":34962
		},
		{
			"buffer":0,
			"byteLength":14088,
			"byteOffset":21132,
			"target":34962
		},
		{
			"buffer":0,
			"byteLength":21132,
			"byteOffset":35220,
			"target":34962
		},
		{
			"buffer":0,
			"byteLength":10362,
			"byteOffset":56352,
			"target":34963
		},
		{
			"buffer":0,
			"byteLength":23592,
			"byteOffset":66716,
			"target":34962
		},
		{
			"buffer":0,
			"byteLength":15728,
			"byteOffset":90308,
			"target":34962
		},
		{
			"buffer":0,
			"byteLength":23592,
			"byteOffset":106036,
			"target":34962
		},
		{
			"buffer":0,
			"byteLength":5808,
			"byteOffset":129628,
			"target":34963
		}
	],
	"buffers":[
		{
			"byteLength":135436,
			"uri":"data:application/octet-stream;base64,"
		}
	]
}
